<?xml version="1.0" standalone="no"?>
<!DOCTYPE svg PUBLIC "-//W3C//DTD SVG 20010904//EN"
 "http://www.w3.org/TR/2001/REC-SVG-20010904/DTD/svg10.dtd">
<svg version="1.0" xmlns="http://www.w3.org/2000/svg"
 width="700.000000pt" height="700.000000pt" viewBox="0 0 700.000000 700.000000"
 preserveAspectRatio="xMidYMid meet">
<metadata>
Created by potrace 1.14, written by Peter Selinger 2001-2017
</metadata>
<g transform="translate(0.000000,700.000000) scale(0.100000,-0.100000)"
fill="#000000" stroke="none">
<path d="M925 4128 c-3 -7 -4 -294 -3 -638 l3 -625 408 -3 407 -2 0 115 0 115
-275 0 -275 0 0 525 0 525 -130 0 c-95 0 -132 -3 -135 -12z"/>
<path d="M2192 3820 c-136 -29 -249 -124 -282 -238 -8 -29 -7 -31 28 -36 21
-3 75 -8 122 -11 l85 -6 20 33 c31 49 79 73 152 73 73 0 110 -22 132 -78 31
-83 -5 -106 -204 -131 -211 -27 -296 -67 -348 -166 -27 -51 -29 -62 -25 -140
5 -100 27 -151 85 -199 66 -54 134 -73 243 -69 82 3 102 8 150 33 31 17 69 49
87 73 l33 44 0 -71 0 -71 125 0 126 0 -3 373 c-3 361 -4 373 -25 413 -34 63
-113 129 -186 154 -70 24 -242 35 -315 20z m268 -582 c-1 -84 -26 -138 -81
-175 -37 -24 -52 -28 -115 -28 -58 0 -78 4 -101 21 -39 29 -52 83 -30 130 21
44 72 68 181 84 44 7 89 16 100 20 42 17 46 13 46 -52z"/>
<path d="M3363 3812 c-69 -25 -117 -63 -150 -120 l-28 -47 -3 88 -3 87 -124 0
-125 0 0 -480 0 -480 130 0 130 0 0 288 c0 296 5 348 37 391 40 52 70 66 143
66 74 0 103 -14 144 -69 20 -26 21 -44 26 -349 l5 -322 130 0 130 0 3 310 c3
328 -3 404 -41 483 -28 60 -87 119 -146 145 -65 29 -189 34 -258 9z"/>
<path d="M4285 3816 c-115 -28 -203 -93 -250 -185 -42 -85 -42 -85 121 -96
l91 -7 21 35 c24 42 64 65 126 73 88 13 155 -32 163 -109 5 -40 2 -47 -19 -61
-14 -9 -84 -24 -166 -36 -204 -28 -250 -43 -316 -101 -60 -52 -80 -101 -80
-194 -1 -99 14 -142 66 -195 58 -61 115 -83 224 -88 124 -6 180 13 251 83 l52
53 3 -62 3 -61 125 0 125 0 0 360 0 360 -28 57 c-45 91 -119 144 -239 173 -75
18 -203 18 -273 1z m275 -586 c0 -100 -31 -151 -112 -185 -74 -30 -184 -11
-210 38 -20 39 -13 96 16 126 31 32 103 54 299 90 4 0 7 -31 7 -69z"/>
<path d="M5270 3814 c-35 -7 -89 -29 -120 -47 -153 -94 -182 -297 -58 -413 53
-51 112 -74 261 -105 165 -35 201 -50 218 -91 27 -66 -40 -118 -150 -118 -77
0 -131 26 -158 78 l-18 34 -124 -5 c-68 -3 -125 -8 -128 -10 -9 -10 18 -85 48
-130 66 -100 171 -148 339 -155 186 -7 303 30 391 125 55 58 73 107 73 188 -1
147 -86 214 -337 266 -164 34 -208 53 -221 92 -25 71 38 120 146 115 77 -4
114 -25 138 -77 14 -31 17 -32 59 -27 24 3 71 6 105 6 88 0 94 6 73 72 -44
139 -190 219 -396 217 -42 0 -105 -7 -141 -15z"/>
<path d="M6080 3114 c-60 -51 -76 -118 -42 -184 27 -55 77 -83 138 -78 62 5
97 29 125 86 16 32 19 52 14 79 -15 79 -70 123 -154 123 -39 0 -56 -6 -81 -26z"/>
</g>
</svg>
