<?xml version="1.0" standalone="no"?>
<!DOCTYPE svg PUBLIC "-//W3C//DTD SVG 20010904//EN"
 "http://www.w3.org/TR/2001/REC-SVG-20010904/DTD/svg10.dtd">
<svg version="1.0" xmlns="http://www.w3.org/2000/svg"
 width="700.000000pt" height="700.000000pt" viewBox="0 0 700.000000 700.000000"
 preserveAspectRatio="xMidYMid meet">
<metadata>
Created by potrace 1.14, written by Peter Selinger 2001-2017
</metadata>
<g transform="translate(0.000000,700.000000) scale(0.100000,-0.100000)"
fill="#000000" stroke="none">
<path d="M637 6583 c-52 -109 -113 -243 -135 -298 -112 -282 -184 -582 -208
-861 l-6 -81 38 -23 c111 -66 376 -195 499 -243 247 -98 540 -174 815 -212
156 -22 582 -31 747 -16 157 15 375 51 508 85 55 14 220 65 367 113 l268 88 0
614 0 614 -42 -7 c-262 -42 -393 -55 -643 -62 -489 -15 -985 59 -1473 217
-205 67 -472 180 -577 244 -22 14 -45 25 -51 25 -6 0 -54 -89 -107 -197z"/>
<path d="M2730 4253 c-205 -31 -353 -72 -505 -138 -125 -54 -225 -110 -290
-160 -164 -126 -479 -195 -767 -167 -68 7 -156 19 -195 27 -166 36 -351 113
-477 199 -37 26 -69 46 -71 44 -2 -2 1 -25 6 -52 69 -370 129 -1006 129 -1373
l0 -132 57 -34 c73 -44 160 -80 260 -109 63 -18 103 -22 213 -22 212 0 329 41
577 202 259 169 471 258 728 309 138 27 434 24 575 -6 148 -31 296 -83 430
-149 63 -31 118 -58 121 -60 4 -1 -2 41 -11 95 -53 289 -86 646 -101 1088 -10
294 -13 342 -27 353 -26 20 -158 58 -261 76 -86 15 -321 20 -391 9z"/>
<path d="M4620 2164 c-542 -37 -925 -112 -1445 -285 -552 -184 -927 -249
-1439 -249 -338 0 -672 40 -975 116 -74 19 -135 33 -136 32 -1 -2 -26 -86 -54
-188 -80 -282 -234 -687 -297 -783 -58 -89 -68 -77 148 -182 230 -111 375
-169 561 -224 288 -85 547 -121 862 -121 385 0 612 40 1055 185 340 111 559
162 885 207 152 20 209 23 535 23 401 -1 515 -11 843 -75 359 -70 796 -217
1044 -351 50 -27 96 -49 102 -49 15 0 186 344 249 500 124 306 193 624 208
953 l7 142 -129 47 c-575 206 -1195 312 -1794 306 -102 -1 -205 -3 -230 -4z"/>
</g>
</svg>
