<svg width="1024" height="1024" viewBox="0 0 1024 1024" fill="none" xmlns="http://www.w3.org/2000/svg">
<rect width="1024" height="1024" fill="white"/>
<rect x="144" y="576" width="736" height="70" fill="#A5F3FC"/>
<path d="M287.616 611H161.92V427.192H210.304V567.224H287.616V611ZM390.226 611V597.688C380.498 608.696 368.466 613.56 350.802 613.56C322.13 613.56 302.93 596.408 302.93 570.296C302.93 543.416 324.69 528.824 364.114 528.824C371.538 528.824 378.45 529.336 384.338 530.36V523.704C384.338 511.672 377.426 505.016 365.138 505.016C353.106 505.016 345.938 511.672 344.402 523.704H304.978C307.538 491.704 331.346 470.712 365.394 470.712C403.282 470.712 425.554 491.192 425.554 526.008V611H390.226ZM344.146 569.016C344.146 577.976 350.29 583.352 361.042 583.352C375.634 583.352 384.338 576.44 384.338 565.176V556.472C377.682 555.192 372.562 554.68 366.93 554.68C352.082 554.68 344.146 559.544 344.146 569.016ZM496.612 538.552V611H452.836V473.272H493.028V489.912C503.78 477.88 516.58 470.712 533.988 470.712C561.124 470.712 580.324 488.888 580.324 522.424V611H536.548V537.016C536.548 519.608 530.404 510.136 517.092 510.136C506.34 510.136 496.612 517.816 496.612 538.552ZM688.476 611V597.688C678.748 608.696 666.716 613.56 649.052 613.56C620.38 613.56 601.18 596.408 601.18 570.296C601.18 543.416 622.94 528.824 662.364 528.824C669.788 528.824 676.7 529.336 682.588 530.36V523.704C682.588 511.672 675.676 505.016 663.388 505.016C651.356 505.016 644.188 511.672 642.652 523.704H603.228C605.788 491.704 629.596 470.712 663.644 470.712C701.532 470.712 723.804 491.192 723.804 526.008V611H688.476ZM642.396 569.016C642.396 577.976 648.54 583.352 659.292 583.352C673.884 583.352 682.588 576.44 682.588 565.176V556.472C675.932 555.192 670.812 554.68 665.18 554.68C650.332 554.68 642.396 559.544 642.396 569.016ZM873.198 564.152C873.198 594.616 850.67 613.56 809.198 613.56C767.726 613.56 745.198 594.104 742.382 562.36H784.366C784.366 573.88 794.862 581.304 809.966 581.304C819.95 581.304 828.91 579 828.91 571.832C828.91 565.688 824.302 563.128 814.83 561.336L787.694 556.472C763.63 552.12 748.27 538.296 748.27 516.024C748.27 489.4 770.798 470.712 806.894 470.712C842.99 470.712 868.078 489.912 870.638 520.632H828.654C827.63 509.624 819.182 502.968 807.15 502.968C796.91 502.968 790.254 505.784 790.254 511.928C790.254 517.816 794.606 519.608 803.31 521.144L832.494 526.52C859.118 531.384 873.198 544.44 873.198 564.152Z" fill="#0C0A09"/>
</svg>
