<svg width="928" height="274" viewBox="0 0 928 274" fill="none" xmlns="http://www.w3.org/2000/svg">
<path d="M121.864 204.277C170.802 187.014 223.579 187.973 272.037 206.674C272.516 226.335 267.239 245.995 258.123 263.738L253.326 273.328C251.886 272.849 249.967 271.89 249.007 270.931C204.867 249.832 154.969 246.954 108.431 263.738C75.8062 275.246 40.3017 272.369 9.5956 257.024L0 252.229C0.479713 250.791 1.43936 248.873 2.39901 247.914C8.15635 235.446 12.9542 222.019 16.3126 208.113C49.8974 217.704 87.3202 216.745 121.864 204.277Z" fill="#F59E0B"/>
<path d="M2.39917 59.9402L12.9543 65.6941C34.3417 76.3821 57.936 81.5564 81.3465 80.874C95.7479 80.4541 110.079 77.8184 123.784 72.8876C128.248 71.3039 132.727 69.8509 137.218 68.5252V17.4125C118.642 20.8647 99.8366 21.3572 81.3465 18.9783C62.1656 16.5101 43.324 10.9517 25.4286 2.39792C24.4691 1.43857 22.5499 0.479228 21.1105 0.000109011L16.3127 9.5903C8.1564 25.4146 3.35871 42.6774 2.39917 59.9402Z" fill="#F59E0B"/>
<path d="M7.86963 112.898C28.482 129.688 61.926 126.948 72.617 116.257C88.9057 106.195 112.629 100.427 132.029 109.061C131.786 130.648 133.241 151.754 137.121 172.861C111.659 157.991 84.2567 159.43 58.7944 177.178C44.2443 187.731 28.2395 187.731 13.6896 178.137C13.9321 157.51 11.9922 136.404 8.35473 115.777C8.35473 115.777 8.11215 114.337 7.86963 112.898Z" fill="#F59E0B"/>
<path d="M363.235 206V66.3636H392.757V181.659H452.621V206H363.235ZM501.49 207.977C494.809 207.977 488.854 206.818 483.627 204.5C478.4 202.136 474.263 198.659 471.218 194.068C468.218 189.432 466.718 183.659 466.718 176.75C466.718 170.932 467.786 166.045 469.922 162.091C472.059 158.136 474.968 154.955 478.65 152.545C482.331 150.136 486.513 148.318 491.195 147.091C495.922 145.864 500.877 145 506.059 144.5C512.15 143.864 517.059 143.273 520.786 142.727C524.513 142.136 527.218 141.273 528.9 140.136C530.581 139 531.422 137.318 531.422 135.091V134.682C531.422 130.364 530.059 127.023 527.331 124.659C524.65 122.295 520.831 121.114 515.877 121.114C510.65 121.114 506.49 122.273 503.4 124.591C500.309 126.864 498.263 129.727 497.263 133.182L470.4 131C471.763 124.636 474.445 119.136 478.445 114.5C482.445 109.818 487.604 106.227 493.922 103.727C500.286 101.182 507.65 99.9091 516.013 99.9091C521.831 99.9091 527.4 100.591 532.718 101.955C538.081 103.318 542.831 105.432 546.968 108.295C551.15 111.159 554.445 114.841 556.854 119.341C559.263 123.795 560.468 129.136 560.468 135.364V206H532.922V191.477H532.104C530.422 194.75 528.172 197.636 525.354 200.136C522.536 202.591 519.15 204.523 515.195 205.932C511.24 207.295 506.672 207.977 501.49 207.977ZM509.809 187.932C514.081 187.932 517.854 187.091 521.127 185.409C524.4 183.682 526.968 181.364 528.831 178.455C530.695 175.545 531.627 172.25 531.627 168.568V157.455C530.718 158.045 529.468 158.591 527.877 159.091C526.331 159.545 524.581 159.977 522.627 160.386C520.672 160.75 518.718 161.091 516.763 161.409C514.809 161.682 513.036 161.932 511.445 162.159C508.036 162.659 505.059 163.455 502.513 164.545C499.968 165.636 497.99 167.114 496.581 168.977C495.172 170.795 494.468 173.068 494.468 175.795C494.468 179.75 495.9 182.773 498.763 184.864C501.672 186.909 505.354 187.932 509.809 187.932ZM612.047 145.455V206H583.002V101.273H610.684V119.75H611.911C614.229 113.659 618.115 108.841 623.57 105.295C629.025 101.705 635.638 99.9091 643.411 99.9091C650.684 99.9091 657.025 101.5 662.434 104.682C667.843 107.864 672.047 112.409 675.047 118.318C678.047 124.182 679.547 131.182 679.547 139.318V206H650.502V144.5C650.547 138.091 648.911 133.091 645.593 129.5C642.275 125.864 637.706 124.045 631.888 124.045C627.979 124.045 624.525 124.886 621.525 126.568C618.57 128.25 616.252 130.705 614.57 133.932C612.934 137.114 612.093 140.955 612.047 145.455ZM732.303 207.977C725.621 207.977 719.667 206.818 714.439 204.5C709.212 202.136 705.076 198.659 702.03 194.068C699.03 189.432 697.53 183.659 697.53 176.75C697.53 170.932 698.598 166.045 700.735 162.091C702.871 158.136 705.78 154.955 709.462 152.545C713.144 150.136 717.326 148.318 722.007 147.091C726.735 145.864 731.689 145 736.871 144.5C742.962 143.864 747.871 143.273 751.598 142.727C755.326 142.136 758.03 141.273 759.712 140.136C761.394 139 762.235 137.318 762.235 135.091V134.682C762.235 130.364 760.871 127.023 758.144 124.659C755.462 122.295 751.644 121.114 746.689 121.114C741.462 121.114 737.303 122.273 734.212 124.591C731.121 126.864 729.076 129.727 728.076 133.182L701.212 131C702.576 124.636 705.257 119.136 709.257 114.5C713.257 109.818 718.417 106.227 724.735 103.727C731.098 101.182 738.462 99.9091 746.826 99.9091C752.644 99.9091 758.212 100.591 763.53 101.955C768.894 103.318 773.644 105.432 777.78 108.295C781.962 111.159 785.257 114.841 787.667 119.341C790.076 123.795 791.28 129.136 791.28 135.364V206H763.735V191.477H762.917C761.235 194.75 758.985 197.636 756.167 200.136C753.348 202.591 749.962 204.523 746.007 205.932C742.053 207.295 737.485 207.977 732.303 207.977ZM740.621 187.932C744.894 187.932 748.667 187.091 751.939 185.409C755.212 183.682 757.78 181.364 759.644 178.455C761.507 175.545 762.439 172.25 762.439 168.568V157.455C761.53 158.045 760.28 158.591 758.689 159.091C757.144 159.545 755.394 159.977 753.439 160.386C751.485 160.75 749.53 161.091 747.576 161.409C745.621 161.682 743.848 161.932 742.257 162.159C738.848 162.659 735.871 163.455 733.326 164.545C730.78 165.636 728.803 167.114 727.394 168.977C725.985 170.795 725.28 173.068 725.28 175.795C725.28 179.75 726.712 182.773 729.576 184.864C732.485 186.909 736.167 187.932 740.621 187.932ZM900.951 131.136L874.36 132.773C873.905 130.5 872.928 128.455 871.428 126.636C869.928 124.773 867.951 123.295 865.496 122.205C863.087 121.068 860.201 120.5 856.837 120.5C852.337 120.5 848.542 121.455 845.451 123.364C842.36 125.227 840.814 127.727 840.814 130.864C840.814 133.364 841.814 135.477 843.814 137.205C845.814 138.932 849.246 140.318 854.11 141.364L873.064 145.182C883.246 147.273 890.837 150.636 895.837 155.273C900.837 159.909 903.337 166 903.337 173.545C903.337 180.409 901.314 186.432 897.269 191.614C893.269 196.795 887.769 200.841 880.769 203.75C873.814 206.614 865.792 208.045 856.701 208.045C842.837 208.045 831.792 205.159 823.564 199.386C815.382 193.568 810.587 185.659 809.178 175.659L837.746 174.159C838.61 178.386 840.701 181.614 844.019 183.841C847.337 186.023 851.587 187.114 856.769 187.114C861.86 187.114 865.951 186.136 869.042 184.182C872.178 182.182 873.769 179.614 873.814 176.477C873.769 173.841 872.655 171.682 870.473 170C868.292 168.273 864.928 166.955 860.382 166.045L842.246 162.432C832.019 160.386 824.405 156.841 819.405 151.795C814.451 146.75 811.973 140.318 811.973 132.5C811.973 125.773 813.792 119.977 817.428 115.114C821.11 110.25 826.269 106.5 832.905 103.864C839.587 101.227 847.405 99.9091 856.36 99.9091C869.587 99.9091 879.996 102.705 887.587 108.295C895.223 113.886 899.678 121.5 900.951 131.136Z" fill="#353535"/>
</svg>
